<svg xmlns="http://www.w3.org/2000/svg" viewBox="0 0 1600 1200" preserveAspectRatio="xMidYMid slice" role="img" aria-label="Multi-story modern hospital building with grid of windows and entrance plaza"><defs><linearGradient id="sky-hospital" x1="0" y1="0" x2="0" y2="1"><stop offset="0" stop-color="#F8F5EF"/><stop offset="1" stop-color="#F1F4EE"/></linearGradient><linearGradient id="wall-hospital" x1="0" y1="0" x2="1" y2="0"><stop offset="0" stop-color="#EFE9DE"/><stop offset="1" stop-color="#D8CFBD"/></linearGradient><linearGradient id="wall-hospital-side" x1="0" y1="0" x2="0" y2="1"><stop offset="0" stop-color="#D8CFBD"/><stop offset="1" stop-color="#B8A88F"/></linearGradient><linearGradient id="window-hospital" x1="0" y1="0" x2="0" y2="1"><stop offset="0" stop-color="#E8F1F7"/><stop offset="1" stop-color="#C5D2B6"/></linearGradient><pattern id="dots-hospital" x="0" y="0" width="38" height="38" patternUnits="userSpaceOnUse"><circle cx="2" cy="2" r="1" fill="#5F7A57" fill-opacity=".05"/></pattern></defs><!-- Sky --><rect width="1600" height="1200" fill="url(#sky-hospital)"/><rect width="1600" height="1200" fill="url(#dots-hospital)"/><!-- Soft sun --><circle cx="240" cy="240" r="90" fill="#EFE0CB" opacity=".5"/><circle cx="240" cy="240" r="38" fill="#EFE0CB" opacity=".85"/><!-- Distant cityscape suggestion (low silhouette) --><g opacity=".35" fill="#A3B795"><rect x="60" y="820" width="80" height="160"/><rect x="160" y="780" width="90" height="200"/><rect x="270" y="840" width="60" height="140"/><rect x="1280" y="820" width="80" height="160"/><rect x="1380" y="800" width="60" height="180"/><rect x="1460" y="850" width="80" height="130"/></g><!-- Side wing (left, recessed) --><g><rect x="280" y="540" width="240" height="500" fill="url(#wall-hospital-side)"/><rect x="280" y="540" width="240" height="500" fill="none" stroke="#B8A88F" stroke-width="2"/><!-- Side wing windows --><g fill="url(#window-hospital)" stroke="#7E5E48" stroke-width="2"><rect x="310" y="580" width="50" height="60" rx="2"/><rect x="380" y="580" width="50" height="60" rx="2"/><rect x="450" y="580" width="50" height="60" rx="2"/><rect x="310" y="670" width="50" height="60" rx="2"/><rect x="380" y="670" width="50" height="60" rx="2"/><rect x="450" y="670" width="50" height="60" rx="2"/><rect x="310" y="760" width="50" height="60" rx="2"/><rect x="380" y="760" width="50" height="60" rx="2"/><rect x="450" y="760" width="50" height="60" rx="2"/><rect x="310" y="850" width="50" height="60" rx="2"/><rect x="380" y="850" width="50" height="60" rx="2"/><rect x="450" y="850" width="50" height="60" rx="2"/></g></g><!-- Main tower (central) --><g><rect x="520" y="320" width="560" height="720" fill="url(#wall-hospital)"/><rect x="520" y="320" width="560" height="720" fill="none" stroke="#B8A88F" stroke-width="2"/><!-- Roof crown --><rect x="510" y="306" width="580" height="20" fill="#5F7A57"/><!-- Rooftop unit --><rect x="720" y="266" width="160" height="40" fill="#7E9874"/><rect x="720" y="266" width="160" height="40" fill="none" stroke="#5F7A57" stroke-width="2"/><!-- Main tower window grid (6 rows x 5 cols) --><g fill="url(#window-hospital)" stroke="#7E5E48" stroke-width="2"><!-- Row 1 --><rect x="550" y="350" width="80" height="80" rx="3"/><rect x="650" y="350" width="80" height="80" rx="3"/><rect x="750" y="350" width="80" height="80" rx="3"/><rect x="850" y="350" width="80" height="80" rx="3"/><rect x="950" y="350" width="80" height="80" rx="3"/><!-- Row 2 --><rect x="550" y="450" width="80" height="80" rx="3"/><rect x="650" y="450" width="80" height="80" rx="3"/><rect x="750" y="450" width="80" height="80" rx="3"/><rect x="850" y="450" width="80" height="80" rx="3"/><rect x="950" y="450" width="80" height="80" rx="3"/><!-- Row 3 --><rect x="550" y="550" width="80" height="80" rx="3"/><rect x="650" y="550" width="80" height="80" rx="3"/><rect x="750" y="550" width="80" height="80" rx="3"/><rect x="850" y="550" width="80" height="80" rx="3"/><rect x="950" y="550" width="80" height="80" rx="3"/><!-- Row 4 --><rect x="550" y="650" width="80" height="80" rx="3"/><rect x="650" y="650" width="80" height="80" rx="3"/><rect x="750" y="650" width="80" height="80" rx="3"/><rect x="850" y="650" width="80" height="80" rx="3"/><rect x="950" y="650" width="80" height="80" rx="3"/><!-- Row 5 --><rect x="550" y="750" width="80" height="80" rx="3"/><rect x="650" y="750" width="80" height="80" rx="3"/><rect x="750" y="750" width="80" height="80" rx="3"/><rect x="850" y="750" width="80" height="80" rx="3"/><rect x="950" y="750" width="80" height="80" rx="3"/></g><!-- Ground floor: wide entrance --><rect x="540" y="850" width="520" height="190" fill="#D8CFBD"/><rect x="540" y="850" width="520" height="190" fill="none" stroke="#B8A88F" stroke-width="2"/><!-- Entrance glass panels --><g fill="url(#window-hospital)" stroke="#7E5E48" stroke-width="3"><rect x="560" y="870" width="100" height="170" rx="3"/><rect x="680" y="870" width="240" height="170" rx="3"/><rect x="940" y="870" width="100" height="170" rx="3"/></g><!-- Door handles on central glass --><line x1="800" y1="870" x2="800" y2="1040" stroke="#7E5E48" stroke-width="1.5" opacity=".6"/><circle cx="790" cy="960" r="4" fill="#7E5E48"/><circle cx="810" cy="960" r="4" fill="#7E5E48"/></g><!-- Side wing (right) --><g><rect x="1080" y="540" width="240" height="500" fill="url(#wall-hospital-side)"/><rect x="1080" y="540" width="240" height="500" fill="none" stroke="#B8A88F" stroke-width="2"/><g fill="url(#window-hospital)" stroke="#7E5E48" stroke-width="2"><rect x="1110" y="580" width="50" height="60" rx="2"/><rect x="1180" y="580" width="50" height="60" rx="2"/><rect x="1250" y="580" width="50" height="60" rx="2"/><rect x="1110" y="670" width="50" height="60" rx="2"/><rect x="1180" y="670" width="50" height="60" rx="2"/><rect x="1250" y="670" width="50" height="60" rx="2"/><rect x="1110" y="760" width="50" height="60" rx="2"/><rect x="1180" y="760" width="50" height="60" rx="2"/><rect x="1250" y="760" width="50" height="60" rx="2"/><rect x="1110" y="850" width="50" height="60" rx="2"/><rect x="1180" y="850" width="50" height="60" rx="2"/><rect x="1250" y="850" width="50" height="60" rx="2"/></g></g><!-- Entrance plaza --><rect x="0" y="1040" width="1600" height="160" fill="#7E9874"/><rect x="0" y="1040" width="1600" height="14" fill="#5F7A57"/><!-- Plaza pavement --><path d="M 540,1040 L 1060,1040 L 1200,1200 L 400,1200 Z" fill="#D8CFBD"/><path d="M 540,1040 L 1060,1040 L 1200,1200 L 400,1200 Z" fill="none" stroke="#B8A88F" stroke-width="2"/><!-- Plaza accent line --><line x1="800" y1="1040" x2="800" y2="1200" stroke="#B8A88F" stroke-width="2" opacity=".5"/><!-- Verification mark --><g opacity=".4" transform="translate(60,60)"><rect x="0" y="0" width="44" height="44" rx="10" fill="none" stroke="#2C2E2A" stroke-width="2"/><path d="M 11,23 L 19,31 L 33,15" fill="none" stroke="#2C2E2A" stroke-width="3" stroke-linecap="round" stroke-linejoin="round"/></g></svg>