<svg xmlns="http://www.w3.org/2000/svg" viewBox="0 0 1600 1200" preserveAspectRatio="xMidYMid slice" role="img" aria-label="Coastal Cape Cod shingle-style cottage treatment facility with dormer windows, picket fence, and beach grasses"><defs><linearGradient id="sky-co18" x1="0" y1="0" x2="0" y2="1"><stop offset="0" stop-color="#F1F4EE"/><stop offset="1" stop-color="#F8F5EF"/></linearGradient><linearGradient id="wall-co18" x1="0" y1="0" x2="0" y2="1"><stop offset="0" stop-color="#D8CFBD"/><stop offset="1" stop-color="#B8A88F"/></linearGradient><linearGradient id="roof-co18" x1="0" y1="0" x2="0" y2="1"><stop offset="0" stop-color="#7E5E48"/><stop offset="1" stop-color="#947F5E"/></linearGradient><radialGradient id="win-co18" cx=".5" cy=".5" r=".55"><stop offset="0" stop-color="#FFF8E8"/><stop offset="1" stop-color="#EFE0CB"/></radialGradient></defs><rect width="1600" height="1200" fill="url(#sky-co18)"/><circle cx="240" cy="240" r="80" fill="#EFE0CB" opacity=".5"/><circle cx="240" cy="240" r="34" fill="#EFE0CB" opacity=".85"/><!-- Gulls --><g fill="none" stroke="#7E9874" stroke-width="3"><path d="M 420,300 q 18,-14 36,0 q 18,-14 36,0"/><path d="M 1100,260 q 20,-16 40,0 q 20,-16 40,0"/><path d="M 1240,340 q 14,-12 28,0 q 14,-12 28,0"/></g><!-- Distant sea horizon --><rect x="0" y="780" width="1600" height="120" fill="#A3B795" opacity=".6"/><rect x="0" y="780" width="1600" height="6" fill="#7E9874"/><!-- Wave hints --><g stroke="#FFFFFF" stroke-width="2" opacity=".5"><line x1="100" y1="830" x2="250" y2="830"/><line x1="400" y1="850" x2="600" y2="850"/><line x1="800" y1="830" x2="950" y2="830"/><line x1="1100" y1="860" x2="1280" y2="860"/><line x1="200" y1="880" x2="380" y2="880"/><line x1="700" y1="880" x2="900" y2="880"/><line x1="1200" y1="880" x2="1380" y2="880"/></g><!-- Beach foreground --><path d="M 0,900 C 240,890 480,900 800,895 C 1120,890 1360,900 1600,895 L 1600,1200 L 0,1200 Z" fill="#EFE0CB"/><rect x="0" y="900" width="1600" height="8" fill="#D8B89A"/><!-- Beach grass tufts at sides --><g stroke="#7E9874" stroke-width="3" fill="none"><path d="M 110,1100 q -10,-50 0,-100"/><path d="M 120,1100 q -4,-50 4,-100"/><path d="M 130,1100 q 4,-50 -4,-100"/><path d="M 140,1100 q 10,-50 0,-100"/><path d="M 1460,1110 q -10,-50 0,-100"/><path d="M 1470,1110 q -4,-50 4,-100"/><path d="M 1480,1110 q 4,-50 -4,-100"/><path d="M 1490,1110 q 10,-50 0,-100"/></g><!-- Picket fence (low across foreground) --><g fill="#F8F5EF" stroke="#7E5E48" stroke-width="2"><rect x="60" y="1120" width="12" height="40"/><rect x="90" y="1120" width="12" height="40"/><rect x="120" y="1120" width="12" height="40"/><rect x="150" y="1120" width="12" height="40"/><rect x="180" y="1120" width="12" height="40"/><rect x="210" y="1120" width="12" height="40"/><rect x="240" y="1120" width="12" height="40"/><rect x="270" y="1120" width="12" height="40"/><rect x="300" y="1120" width="12" height="40"/><rect x="1300" y="1120" width="12" height="40"/><rect x="1330" y="1120" width="12" height="40"/><rect x="1360" y="1120" width="12" height="40"/><rect x="1390" y="1120" width="12" height="40"/><rect x="1420" y="1120" width="12" height="40"/><rect x="1450" y="1120" width="12" height="40"/><rect x="1480" y="1120" width="12" height="40"/><rect x="1510" y="1120" width="12" height="40"/><rect x="1540" y="1120" width="12" height="40"/></g><line x1="55" y1="1130" x2="318" y2="1130" stroke="#F8F5EF" stroke-width="5"/><line x1="1295" y1="1130" x2="1558" y2="1130" stroke="#F8F5EF" stroke-width="5"/><!-- Cottage --><g><!-- Steep gable roof --><path d="M 480,600 L 800,400 L 1120,600 L 1100,620 L 800,420 L 500,620 Z" fill="url(#roof-co18)"/><rect x="470" y="610" width="660" height="18" fill="#5F4226"/><!-- Brick chimney --><rect x="970" y="460" width="50" height="160" fill="#947F5E"/><rect x="962" y="454" width="66" height="14" fill="#5F4226"/><!-- Walls (shingle) --><rect x="500" y="628" width="600" height="392" fill="url(#wall-co18)"/><rect x="500" y="628" width="600" height="392" fill="none" stroke="#7E5E48" stroke-width="2"/><!-- Shingle texture (offset rows) --><g fill="none" stroke="#B8A88F" stroke-width="1.5" opacity=".55"><line x1="500" y1="668" x2="1100" y2="668"/><line x1="500" y1="708" x2="1100" y2="708"/><line x1="500" y1="748" x2="1100" y2="748"/><line x1="500" y1="788" x2="1100" y2="788"/><line x1="500" y1="828" x2="1100" y2="828"/><line x1="500" y1="868" x2="1100" y2="868"/><line x1="500" y1="908" x2="1100" y2="908"/><line x1="500" y1="948" x2="1100" y2="948"/><line x1="500" y1="988" x2="1100" y2="988"/></g><g stroke="#B8A88F" stroke-width="1" opacity=".4"><line x1="550" y1="668" x2="550" y2="708"/><line x1="600" y1="668" x2="600" y2="708"/><line x1="650" y1="668" x2="650" y2="708"/><line x1="700" y1="668" x2="700" y2="708"/><line x1="750" y1="668" x2="750" y2="708"/><line x1="800" y1="668" x2="800" y2="708"/><line x1="850" y1="668" x2="850" y2="708"/><line x1="900" y1="668" x2="900" y2="708"/><line x1="950" y1="668" x2="950" y2="708"/><line x1="1000" y1="668" x2="1000" y2="708"/><line x1="1050" y1="668" x2="1050" y2="708"/><line x1="525" y1="708" x2="525" y2="748"/><line x1="575" y1="708" x2="575" y2="748"/><line x1="625" y1="708" x2="625" y2="748"/><line x1="675" y1="708" x2="675" y2="748"/><line x1="725" y1="708" x2="725" y2="748"/><line x1="775" y1="708" x2="775" y2="748"/><line x1="825" y1="708" x2="825" y2="748"/><line x1="875" y1="708" x2="875" y2="748"/><line x1="925" y1="708" x2="925" y2="748"/><line x1="975" y1="708" x2="975" y2="748"/><line x1="1025" y1="708" x2="1025" y2="748"/><line x1="1075" y1="708" x2="1075" y2="748"/></g><!-- Twin dormers --><g><path d="M 590,628 L 620,560 L 720,560 L 750,628 Z" fill="url(#roof-co18)" stroke="#5F4226" stroke-width="2"/><rect x="620" y="560" width="100" height="68" fill="url(#wall-co18)"/><rect x="635" y="575" width="70" height="50" rx="3" fill="url(#win-co18)" stroke="#5F4226" stroke-width="2"/><line x1="670" y1="575" x2="670" y2="625" stroke="#5F4226" stroke-width="1.5"/><path d="M 850,628 L 880,560 L 980,560 L 1010,628 Z" fill="url(#roof-co18)" stroke="#5F4226" stroke-width="2"/><rect x="880" y="560" width="100" height="68" fill="url(#wall-co18)"/><rect x="895" y="575" width="70" height="50" rx="3" fill="url(#win-co18)" stroke="#5F4226" stroke-width="2"/><line x1="930" y1="575" x2="930" y2="625" stroke="#5F4226" stroke-width="1.5"/></g><!-- Lower-floor windows --><rect x="540" y="780" width="140" height="160" rx="3" fill="url(#win-co18)" stroke="#5F4226" stroke-width="3"/><line x1="610" y1="780" x2="610" y2="940" stroke="#5F4226" stroke-width="2"/><line x1="540" y1="860" x2="680" y2="860" stroke="#5F4226" stroke-width="2"/><rect x="920" y="780" width="140" height="160" rx="3" fill="url(#win-co18)" stroke="#5F4226" stroke-width="3"/><line x1="990" y1="780" x2="990" y2="940" stroke="#5F4226" stroke-width="2"/><line x1="920" y1="860" x2="1060" y2="860" stroke="#5F4226" stroke-width="2"/><!-- Shutters (blue-green) --><g fill="#5F7A57" stroke="#3F5A3A" stroke-width="1.5"><rect x="514" y="780" width="22" height="160"/><rect x="684" y="780" width="22" height="160"/><rect x="894" y="780" width="22" height="160"/><rect x="1064" y="780" width="22" height="160"/></g><!-- Door, centered, painted --><rect x="740" y="780" width="120" height="240" rx="4" fill="#5F4226"/><rect x="750" y="790" width="100" height="230" rx="3" fill="#5F7A57" stroke="#3F5A3A" stroke-width="2"/><rect x="765" y="805" width="70" height="60" rx="2" fill="url(#win-co18)" stroke="#3F5A3A" stroke-width="2"/><line x1="800" y1="805" x2="800" y2="865" stroke="#3F5A3A" stroke-width="1.5"/><circle cx="840" cy="900" r="5" fill="#3F5A3A"/><!-- Door overhang --><path d="M 720,780 L 880,780 L 900,800 L 700,800 Z" fill="#5F4226"/></g><!-- Steps --><rect x="720" y="1020" width="160" height="14" fill="#947F5E"/><rect x="710" y="1034" width="180" height="14" fill="#B8A88F"/><rect x="700" y="1048" width="200" height="14" fill="#947F5E"/><!-- Stone walkway --><g fill="#D8CFBD" stroke="#B8A88F" stroke-width="2"><ellipse cx="800" cy="1100" rx="60" ry="20"/><ellipse cx="800" cy="1160" rx="66" ry="22"/></g><g opacity=".4" transform="translate(60,60)"><rect x="0" y="0" width="44" height="44" rx="10" fill="none" stroke="#2C2E2A" stroke-width="2"/><path d="M 11,23 L 19,31 L 33,15" fill="none" stroke="#2C2E2A" stroke-width="3" stroke-linecap="round" stroke-linejoin="round"/></g></svg>